<mxfile host="app.diagrams.net" modified="2021-10-18T06:40:39.925Z" agent="5.0 (Windows NT 10.0; Win64; x64) AppleWebKit/537.36 (KHTML, like Gecko) Chrome/94.0.4606.81 Safari/537.36" etag="OZxYpL9nS2W3cBlyome2" version="15.3.8" type="github" pages="2">
  <diagram name="Page-1" id="97916047-d0de-89f5-080d-49f4d83e522f">
    <mxGraphModel dx="1474" dy="1166" grid="1" gridSize="10" guides="1" tooltips="1" connect="1" arrows="1" fold="1" page="1" pageScale="1.5" pageWidth="1169" pageHeight="827" background="none" math="0" shadow="0">
      <root>
        <mxCell id="0" />
        <mxCell id="1" parent="0" />
        <mxCell id="vlaxKZ8o50aW13DuZvyz-58" value="&lt;h1 style=&quot;font-size: 18px;&quot;&gt;&lt;font style=&quot;font-size: 18px;&quot;&gt;&lt;span style=&quot;font-size: 18px;&quot;&gt;能力描述框架&lt;/span&gt;&lt;/font&gt;&lt;/h1&gt;" style="whiteSpace=wrap;html=1;rounded=1;fontSize=18;fontStyle=1;align=center;verticalAlign=middle;fontFamily=Helvetica;strokeWidth=4;" vertex="1" parent="1">
          <mxGeometry x="817" y="180" width="120" height="60" as="geometry" />
        </mxCell>
        <mxCell id="vlaxKZ8o50aW13DuZvyz-59" value="&lt;h2 style=&quot;font-size: 18px;&quot;&gt;&lt;span style=&quot;font-size: 18px;&quot;&gt;语用能力&lt;/span&gt;&lt;/h2&gt;" style="whiteSpace=wrap;html=1;fontSize=18;rounded=1;fontStyle=1;align=center;verticalAlign=middle;fontFamily=Helvetica;strokeWidth=4;" vertex="1" parent="1">
          <mxGeometry x="760" y="320" width="120" height="60" as="geometry" />
        </mxCell>
        <mxCell id="vlaxKZ8o50aW13DuZvyz-60" value="&lt;font style=&quot;font-size: 18px;&quot;&gt;&lt;span style=&quot;font-size: 18px;&quot;&gt;语言表达能力&lt;/span&gt;&lt;/font&gt;" style="whiteSpace=wrap;html=1;fontSize=18;rounded=1;fontStyle=1;align=center;verticalAlign=middle;fontFamily=Helvetica;strokeWidth=4;" vertex="1" parent="1">
          <mxGeometry x="560" y="320" width="120" height="60" as="geometry" />
        </mxCell>
        <mxCell id="vlaxKZ8o50aW13DuZvyz-61" value="&lt;h2 style=&quot;font-size: 18px;&quot;&gt;&lt;font style=&quot;font-size: 18px;&quot;&gt;&lt;span style=&quot;font-size: 18px;&quot;&gt;语言理解能力&lt;/span&gt;&lt;/font&gt;&lt;/h2&gt;" style="whiteSpace=wrap;html=1;fontSize=18;rounded=1;fontStyle=1;align=center;verticalAlign=middle;fontFamily=Helvetica;strokeWidth=4;glass=0;" vertex="1" parent="1">
          <mxGeometry x="360" y="320" width="120" height="60" as="geometry" />
        </mxCell>
        <mxCell id="vlaxKZ8o50aW13DuZvyz-62" value="&lt;span style=&quot;font-size: 18px;&quot;&gt;翻译能力&lt;/span&gt;" style="whiteSpace=wrap;html=1;fontSize=18;rounded=1;fontStyle=1;align=center;verticalAlign=middle;fontFamily=Helvetica;strokeWidth=4;" vertex="1" parent="1">
          <mxGeometry x="1360" y="320" width="120" height="60" as="geometry" />
        </mxCell>
        <mxCell id="vlaxKZ8o50aW13DuZvyz-63" value="&lt;h2 style=&quot;font-size: 18px;&quot;&gt;&lt;font style=&quot;font-size: 18px;&quot;&gt;语言知识&lt;/font&gt;&lt;/h2&gt;" style="whiteSpace=wrap;html=1;fontSize=18;rounded=1;fontStyle=1;align=center;verticalAlign=middle;fontFamily=Helvetica;strokeWidth=4;" vertex="1" parent="1">
          <mxGeometry x="1160" y="320" width="120" height="60" as="geometry" />
        </mxCell>
        <mxCell id="vlaxKZ8o50aW13DuZvyz-64" value="&lt;h2 style=&quot;font-size: 18px;&quot;&gt;&lt;span style=&quot;font-size: 18px;&quot;&gt;语言使用策略&lt;/span&gt;&lt;/h2&gt;" style="whiteSpace=wrap;html=1;fontSize=18;rounded=1;fontStyle=1;align=center;verticalAlign=middle;fontFamily=Helvetica;strokeWidth=4;" vertex="1" parent="1">
          <mxGeometry x="960" y="320" width="120" height="60" as="geometry" />
        </mxCell>
        <mxCell id="vlaxKZ8o50aW13DuZvyz-65" value="语言理解策略" style="whiteSpace=wrap;html=1;rounded=1;fontSize=18;fontStyle=1;align=center;verticalAlign=middle;fontFamily=Helvetica;strokeWidth=4;" vertex="1" parent="1">
          <mxGeometry x="865" y="420" width="120" height="60" as="geometry" />
        </mxCell>
        <mxCell id="vlaxKZ8o50aW13DuZvyz-66" value="书面表达能力" style="whiteSpace=wrap;html=1;rounded=1;fontSize=18;fontStyle=1;align=center;verticalAlign=middle;fontFamily=Helvetica;strokeWidth=4;" vertex="1" parent="1">
          <mxGeometry x="673" y="420" width="120" height="60" as="geometry" />
        </mxCell>
        <mxCell id="vlaxKZ8o50aW13DuZvyz-67" value="口头表达能力&amp;nbsp;" style="whiteSpace=wrap;html=1;rounded=1;fontSize=18;fontStyle=1;align=center;verticalAlign=middle;fontFamily=Helvetica;strokeWidth=4;" vertex="1" parent="1">
          <mxGeometry x="480" y="420" width="120" height="60" as="geometry" />
        </mxCell>
        <mxCell id="vlaxKZ8o50aW13DuZvyz-68" value="叙述&amp;nbsp;" style="whiteSpace=wrap;html=1;rounded=1;fontSize=18;fontStyle=1;align=center;verticalAlign=middle;fontFamily=Helvetica;strokeWidth=4;" vertex="1" parent="1">
          <mxGeometry x="456" y="510" width="120" height="60" as="geometry" />
        </mxCell>
        <mxCell id="vlaxKZ8o50aW13DuZvyz-69" value="描述&amp;nbsp;" style="whiteSpace=wrap;html=1;rounded=1;fontSize=18;fontStyle=1;align=center;verticalAlign=middle;fontFamily=Helvetica;strokeWidth=4;" vertex="1" parent="1">
          <mxGeometry x="300" y="510" width="120" height="60" as="geometry" />
        </mxCell>
        <mxCell id="vlaxKZ8o50aW13DuZvyz-70" value="说明&amp;nbsp;" style="whiteSpace=wrap;html=1;rounded=1;fontSize=18;fontStyle=1;align=center;verticalAlign=middle;fontFamily=Helvetica;strokeWidth=4;" vertex="1" parent="1">
          <mxGeometry x="612" y="510" width="120" height="60" as="geometry" />
        </mxCell>
        <mxCell id="vlaxKZ8o50aW13DuZvyz-71" value="论述" style="whiteSpace=wrap;html=1;rounded=1;fontSize=18;fontStyle=1;align=center;verticalAlign=middle;fontFamily=Helvetica;strokeWidth=4;" vertex="1" parent="1">
          <mxGeometry x="768" y="510" width="120" height="60" as="geometry" />
        </mxCell>
        <mxCell id="vlaxKZ8o50aW13DuZvyz-72" value="互动&amp;nbsp;" style="whiteSpace=wrap;html=1;rounded=1;fontSize=18;fontStyle=1;align=center;verticalAlign=middle;fontFamily=Helvetica;strokeWidth=4;" vertex="1" parent="1">
          <mxGeometry x="1080" y="510" width="120" height="60" as="geometry" />
        </mxCell>
        <mxCell id="vlaxKZ8o50aW13DuZvyz-73" value="指示" style="whiteSpace=wrap;html=1;rounded=1;fontSize=18;fontStyle=1;align=center;verticalAlign=middle;fontFamily=Helvetica;strokeWidth=4;" vertex="1" parent="1">
          <mxGeometry x="924" y="510" width="120" height="60" as="geometry" />
        </mxCell>
        <mxCell id="vlaxKZ8o50aW13DuZvyz-75" value="翻译策略&amp;nbsp;" style="whiteSpace=wrap;html=1;rounded=1;fontSize=18;fontStyle=1;align=center;verticalAlign=middle;fontFamily=Helvetica;strokeWidth=4;" vertex="1" parent="1">
          <mxGeometry x="1250" y="420" width="120" height="60" as="geometry" />
        </mxCell>
        <mxCell id="vlaxKZ8o50aW13DuZvyz-76" value="语言表达策略" style="whiteSpace=wrap;html=1;rounded=1;fontSize=18;fontStyle=1;align=center;verticalAlign=middle;fontFamily=Helvetica;strokeWidth=4;" vertex="1" parent="1">
          <mxGeometry x="1058" y="420" width="120" height="60" as="geometry" />
        </mxCell>
        <mxCell id="vlaxKZ8o50aW13DuZvyz-77" value="口头表达策略" style="whiteSpace=wrap;html=1;rounded=1;fontSize=18;fontStyle=1;align=center;verticalAlign=middle;fontFamily=Helvetica;strokeWidth=4;" vertex="1" parent="1">
          <mxGeometry x="1010" y="610" width="120" height="60" as="geometry" />
        </mxCell>
        <mxCell id="vlaxKZ8o50aW13DuZvyz-78" value="面表达策略&amp;nbsp;" style="whiteSpace=wrap;html=1;rounded=1;fontSize=18;fontStyle=1;align=center;verticalAlign=middle;fontFamily=Helvetica;strokeWidth=4;" vertex="1" parent="1">
          <mxGeometry x="1190" y="610" width="120" height="60" as="geometry" />
        </mxCell>
        <mxCell id="vlaxKZ8o50aW13DuZvyz-79" value="评估/补救&amp;nbsp;" style="whiteSpace=wrap;html=1;rounded=1;fontSize=18;fontStyle=1;align=center;verticalAlign=middle;fontFamily=Helvetica;strokeWidth=4;" vertex="1" parent="1">
          <mxGeometry x="1160" y="710" width="120" height="60" as="geometry" />
        </mxCell>
        <mxCell id="vlaxKZ8o50aW13DuZvyz-80" value="执行&amp;nbsp;" style="whiteSpace=wrap;html=1;rounded=1;fontSize=18;fontStyle=1;align=center;verticalAlign=middle;fontFamily=Helvetica;strokeWidth=4;" vertex="1" parent="1">
          <mxGeometry x="1015" y="710" width="120" height="60" as="geometry" />
        </mxCell>
        <mxCell id="vlaxKZ8o50aW13DuZvyz-81" value="规划" style="whiteSpace=wrap;html=1;rounded=1;fontSize=18;fontStyle=1;align=center;verticalAlign=middle;fontFamily=Helvetica;strokeWidth=4;" vertex="1" parent="1">
          <mxGeometry x="870" y="710" width="120" height="60" as="geometry" />
        </mxCell>
        <mxCell id="GpAVtc3-4A0VKJI3cnyH-9" value="" style="edgeStyle=elbowEdgeStyle;elbow=vertical;endArrow=classic;html=1;fontFamily=Helvetica;fontSize=18;exitX=0.25;exitY=1;exitDx=0;exitDy=0;" edge="1" parent="1" source="vlaxKZ8o50aW13DuZvyz-58">
          <mxGeometry width="50" height="50" relative="1" as="geometry">
            <mxPoint x="770" y="520" as="sourcePoint" />
            <mxPoint x="430" y="310" as="targetPoint" />
            <Array as="points">
              <mxPoint x="770" y="250" />
            </Array>
          </mxGeometry>
        </mxCell>
      </root>
    </mxGraphModel>
  </diagram>
  <diagram id="3X8aNqP5ZTjSzMPVC_Yu" name="Page-2">
    <mxGraphModel dx="977" dy="583" grid="1" gridSize="10" guides="1" tooltips="1" connect="1" arrows="1" fold="1" page="1" pageScale="1" pageWidth="827" pageHeight="1169" math="0" shadow="0">
      <root>
        <mxCell id="-9anEPGIW3KinixXxjvg-0" />
        <mxCell id="-9anEPGIW3KinixXxjvg-1" parent="-9anEPGIW3KinixXxjvg-0" />
      </root>
    </mxGraphModel>
  </diagram>
</mxfile>
